<?xml version="1.0" encoding="UTF-8"?>
<svg id="Camada_1" data-name="Camada 1" xmlns="http://www.w3.org/2000/svg" viewBox="0 0 241.9 144.44">
  <defs>
    <style>
      .cls-1 {
        fill: #668967;
      }
    </style>
  </defs>
  <path class="cls-1" d="M56.91,124.55c-1.87-1.19-4.13-2.7-5.71-3.93-1.9-1.47-11.2-9.45-11.19-11.22l.25-.15c.76.35,4.29,3.52,5.24,4.34,27.84,23.81,63.15,21.67,95.87,9.31,3.78-1.47,7.48-3.11,11.11-4.93,1.92-.97,4.01-2.27,5.98-3.13.42-.18.49-.05.83.14l.12.46c-.05.26-.19.75-.37.94-9.48,10.66-28,16.97-41.17,19.78-7.82,1.61-15.78,2.42-23.77,2.42-21.49.21-39.76-4.01-58.16-15.71C19.5,112.41,5.25,94.32,1.22,75.05c-2.84-13.95-.86-28.62,7.37-40.46,10.24-14.75,24.79-23.16,42.02-26.96C84.42.18,125.74,15.18,132.27,52.95c.16.9.44,1.77-.1,2.6-1.12.78-2.53.12-2.79-1.4-3.46-19.63-17.62-34.3-35.82-41.33-1.94-.75-4.73-1.9-6.74-2.21-.94-.24-4.8-1.34-5.48-1.03.68.49,4.09,1.22,5.02,1.39,20.06,6.36,35.21,18.92,39.44,40.48.22,1.15.81,2.6-.17,3.53-.56.28-1.45,0-2.1-.13-.91-1.34-2.06-5.09-2.78-6.78-5.9-13.96-17.35-24.2-31.04-29.98-15.35-6.49-34.06-7.28-49.49-.81-10.75,4.51-19.25,12.18-23.67,23.19-3.76,9.48-4.33,21.26-2.79,31.32,3.46,22.48,22.81,44.37,43.2,52.93,0,0,3.32,1.95,4.75,2.34M34.32,116.76c.61.49,1.23.96,1.86,1.42.74.64,1.29.99,2.1,1.52,1.23,1.03,5.49,3.54,7.03,4.15-2.28-1.74-4.38-3.17-6.76-4.8-.61-.45-1.5-1.17-2.16-1.47-.6-.49-.85-.72-1.54-1.05C15.54,100,2.26,76.32,6.59,50.06c.19-1.15,6.73-16.27,6.52-16.72-1.18,1.04-5.28,10.38-6.16,12.42-.01.02-.02.05-.03.07-1.8,5.34-2.68,10.94-2.6,16.58.1,21.68,13.07,41.71,30.01,54.36"/>
  <path class="cls-1" d="M76.68,8.7c.99-.14,3.69.1,4.37.85-.5.11-3.62-.05-4.19-.36-.12-.07-.14-.31-.19-.49"/>
  <path class="cls-1" d="M120.86,61.78c4.52-.3,3.83,5.45,3.16,8.38-2.38,10.35-6.41,20.8-13.07,29.16-1.23,1.48-1.56,4.13-1.09,6.01,1.49,5.95,5,.82,6.46-1.34,3.38-5.03,3.22-10.25,5.47-15.67.71-1.71,4.3-2.08,5.74-1.34.42.61.32.63.22,1.36-.43,3.17-5.78,14.74-3.72,17.12.33.12.5.25.84.16,4.86-1.26,3.78-6.28,4.65-10.43,1.25-5.99,8.88-15.22,15.52-9.99.75,2.09.69,3.4.08,5.51-.33,1.16-1.92,1.61-2.88,1.14-1.27-1.6.72-3.86-.6-5.36-4.37.23-7.88,12.45-5.93,16.01,2.79,5.1,10.36-2,11.55-5.17,1.58-4.2,1.41-10.13,3.59-14.06.46-.83,3.9-.77,4.75-.62.4.31.61.45.6,1.03-.08,3.94-4.6,14.21-3.09,17.68,1.03.93,2.27-.11,3.18-.82,3.76-2.97,2.39-7.09,4.06-10.97,1.02-2.38,3.44-5.88,5.22-7.78,1.4-1.48,3.33-2.33,5.37-2.37,5.39-.14,6.94,3.63,6.95,8.38,1.17-.63,2.75-1.34,4.02-1.72-2.08-4.91-.09-9.34,4.53-11.76,6.7-3.51,11.47,1.44,5.83,7.43-.49.52-3.44,2.96-3.49,3.1.18.32,2.43,2.28,2.93,2.77,1.5-1.34,4.99-4.05,6.08-5.58,1.82-2.54,3.41-7.13,5.57-9.34,1.08-1.1,4-1.87,5.63-1.73,2.81.24,4.7,2.12,5.73,4.68.32.8.58,2.24,1.07,2.82,1.68.25,4.89-2.66,6.13-3.77,1.12-1,3.01-4.25,4.64-3.63,1.29,2.08-2.52,5.34-3.86,6.63-1.75,1.85-4.84,3.56-7.24,4.37-.6,16.67-18.52,20.38-18.05,4.25-1.18,1.07-2.44,2.13-3.65,3.17,5.33,6.45,4.34,12.35-1.46,18.16-2.87,3.28-11.77,6.93-15.09,2.69-5.18-6.61,6.22-15.98,9.81-19.09-1.11-.99-2.33-2.2-3.41-3.24-1.8,1.04-4.09,2.04-6,2.8-.85,3-1.47,5.56-3.32,8.18-2.46,3.49-5.91,6.41-10.48,5.08-1.23-.36-3.07-1.56-3.65-2.73-.14-.27-.16-.2-.43-.35-.96.42-2.19,2.44-3.48,3.33-1.72,1.2-2.94,1.71-5.13,1.44-1.11-.13-2.57-1-3.12-1.98-.23-.42-.15-.65-.54-1.19-.38.05-1.46,1.14-1.79,1.47-3.96,3.99-11.34,5.95-15.57,1.16-3.51,3.99-8.95,7.33-12.01.89-2.27,3.85-7.33,8.2-11.75,4.54-1.52-1.25-1.94-3.5-2.03-5.38-3.45,4.79-10.73,10.76-16.81,7.04-1.66-1-2.84-2.64-3.26-4.54-1.84-8.1,5.14-19.58,13.03-21.31,6.99-1.53,6.72,7.02,3.52,11.04-3.18,3.99-6.05,5.97-10.97,6.9.44,2.92.78,6.71,4.92,4.96,2.79-1.22,4.9-3.4,6.9-5.63,1.96-2.19,2.71-3.44,3.1-6.32,1.17-8.56,8.2-32.26,16.13-35.64M208.88,91.1c2.04-2.94,2.14-4.64,2.83-8.05-4.7,0-3.89-.37-7.52-2.06-.42,2.52-2.29,11,1.53,11.9,1.34.31,2.37-.83,3.15-1.79M189.2,93.54c-3.48,3.37-7.79,7.19-8.44,12.34-.14,1.1.66,2.44,1.75,2.77,6.13-1.49,10.79-9.22,7.1-14.92l-.42-.19ZM190.38,76.41c-2.33,1.11-4.41,3.39-3.33,6.16l.29.14.4-.32c1.25-1.06,4.81-4.08,3.55-5.82-.35-.09-.56-.16-.92-.16M171.26,82.48c-2.98,1.39-1.59,4.98,1.5,5.62.8.03.75.17,1.23-.23.68-1.85-.52-5.03-2.73-5.39M173.62,91.38c-2.58.3-4.78-.32-6.8-1.97-.07-.06-.23-.19-.32-.24-.91,3.16-2.47,7.62-.97,10.73,1.15,2.38,3.93-.33,4.89-1.32,1.85-2.61,2.34-4.08,3.19-7.21M120.95,66.42c-4.42,6.51-8.11,19.67-9.96,27.65-.03.14.08.21.17.31,4.03-7.44,9.67-18.99,10.03-27.54-.05-.1-.19-.36-.25-.42M208.52,73.97c-1.47.73-2.2,2.02-1.38,3.61.47.93,1.3,1.62,2.29,1.93.25.07.5.13.75.18.83.09.76.22,1.34-.14.82-1.9-1.09-4.92-2.99-5.58M91.49,100.94c3.97-1.78,8.22-5.71,7.58-10.48-.32-.32-.16-.23-.65-.3-3.89,2.42-6.04,6.38-7.54,10.58.29.25.15.18.61.19"/>
  <path class="cls-1" d="M62.54,19.1c1.5-.19,3.58-.11,5.1-.06,20.41.61,35.19,12.79,34.33,34.21-.76,25.64-20.47,49.02-45.75,53.66-9.26,1.7-24.54,1.18-28.52-9.87-.16-.43.09-.87.33-1.2.41-.22.91-.38,1.32-.13,2.88,1.79,4.98,4.16,8.46,4.92,9.11,1.98,18.33-1.6,26.09-6.18,3.25-1.96,7-5.03,9.59-7.72,10.1-10.78,15.82-23.23,15.85-38.11.02-16.25-10.32-24.99-26.08-25.06-2.43-.01-6.19.11-8.59.55-8.79,1.62-18.09,5.09-24.54,11.5-1.65,1.67-4.39,5.62-3.76,8.13.2.79,1.66,2.82,1.67,3.78-2.18,2.32-7.11-1.44-6.98-4.85.15-3.83.89-5.79,3.55-8.58,9.4-9.89,24.69-14.11,37.93-14.99"/>
  <path class="cls-1" d="M175.16,68.17c.83-1.12,2.93-2.89,4.03-3.8,10.29-8.48,24.25-13.52,37.61-12.07,7.57.82,15.03,3.87,19.95,9.93,4.62,5.69,5.62,11.47,4.97,18.61-1.08,11.92-10.18,23.38-19.4,30.63-21.17,16.65-50.01,25.51-76.17,30.45-5.92,1.12-16.79,3.01-22.4,2.4,1.71-.91,5.24-1.74,7.25-2.29,2.84-.78,5.66-1.61,8.46-2.52,12.87-4.1,26.24-9.88,35.22-20.35.73-.85,3.3-5.75,4.84-3.55.09.98-.43,1.87-.95,2.66-5.39,8.36-14.32,13.96-23.17,18.06-1,.38-1.64.64-2.62,1.12.96-.11,1.87-.22,2.83-.39,2.98-1.05,7.81-2.17,11.05-3.13,6.82-2.05,13.56-4.36,20.2-6.93,6.91-2.69,13.9-5.94,20.31-9.74,12-7.26,22.69-14.99,28.58-28.23,7.57-17.01-1.98-30.84-19.77-33.2-12.55-1.67-23.89,2.43-34.55,8.87-1.69,1.02-4.52,2.78-6.29,3.48"/>
  <path class="cls-1" d="M60.39,25.13c1.92-.36,2.87.59,2.19,2.53-7.15,20.44-9.31,42.37-15.77,63.04-.76,2.43-1.3,4.95-2.8,7.02-1.71.69-4.09.87-5.92.97-1.1-.2-2.58-.41-2.6-1.84-.05-3.52.72-7.36,1.35-10.84,2.74-15.09,5.6-30.23,9.83-44.97,1.11-3.86,3.06-9.44,5.33-12.66,1.5-2.12,5.85-2.98,8.38-3.24"/>
  <path class="cls-1" d="M171.64,113.69l.56.13c1.77,1.56-1.21,4.83-2.4,6.14-12.6,13.87-35.19,21.42-53.3,22.77-.56-.02-.62.08-1-.22.57-.86,3.85-1.34,4.95-1.64l10.31-2.82c12.75-3.49,27.26-9.28,36.36-19.26,1.51-1.66,2.61-3.88,4.52-5.11"/>
  <path class="cls-1" d="M154.76,73.27c5.13-.19,4.45,5.04.13,6.76-4.48,1.09-5.68-5.15-.13-6.76"/>
  <path class="cls-1" d="M126.85,77.8c4.85-.32,4.61,4.68-.07,6.56-4.92.37-5.09-5.23.07-6.56"/>
  <path class="cls-1" d="M152.8,137.45c.98-.48,1.61-.74,2.62-1.12l.21.73c-.95.17-1.87.28-2.83.39"/>
</svg>